<svg width="14" height="14" viewBox="0 0 14 14" fill="none" xmlns="http://www.w3.org/2000/svg">
<circle cx="7" cy="7" r="7" fill="#0500A1"/>
<path d="M2.504 10V9.748C2.936 9.748 3.188 9.668 3.26 9.508V3.472C3.188 3.312 2.936 3.232 2.504 3.232V2.98H5.12V3.232C4.688 3.232 4.436 3.312 4.364 3.472V9.592H7.1C7.3 9.504 7.48 9.252 7.64 8.836H7.88L7.592 10H2.504Z" fill="white"/>
<path d="M6.504 12V11.748C6.936 11.748 7.188 11.668 7.26 11.508V5.472C7.188 5.312 6.936 5.232 6.504 5.232V4.98H9.216C10.2 4.98 10.948 5.168 11.46 5.544C11.98 5.92 12.24 6.34 12.24 6.804C12.24 7.404 12 7.888 11.52 8.256C11.04 8.624 10.32 8.808 9.36 8.808H8.364V11.508C8.436 11.668 8.688 11.748 9.12 11.748V12H6.504ZM8.364 5.388V8.4H9.36C9.976 8.4 10.408 8.28 10.656 8.04C10.912 7.792 11.04 7.384 11.04 6.816C11.04 5.864 10.432 5.388 9.216 5.388H8.364Z" fill="white"/>
</svg>
